<?xml version="1.0" encoding="UTF-8"?>
<svg width="22px" height="44px" viewBox="0 0 22 44" version="1.1" xmlns="http://www.w3.org/2000/svg" xmlns:xlink="http://www.w3.org/1999/xlink">
    <g id="Page-1" stroke="none" stroke-width="1" fill="none" fill-rule="evenodd">
        <g id="Group" fill="currentColor">
            <path d="M11,0 C4.9340813,0 0,4.9340813 0,11 C0,17.0659187 4.9340813,22 11,22 C17.0659187,22 22,17.0659187 22,11 C22,4.9340813 17.0659187,0 11,0 Z M11,1.6097561 C16.1952195,1.6097561 20.3902439,5.80478049 20.3902439,11 C20.3902439,16.1952195 16.1952195,20.3902439 11,20.3902439 C5.80478049,20.3902439 1.6097561,16.1952195 1.6097561,11 C1.6097561,5.80478049 5.80478049,1.6097561 11,1.6097561 Z M8.04878049,6.17073171 L8.04878049,15.8292683 L16.097561,11 L8.04878049,6.17073171 Z" id="play"></path>
            <path d="M11.0002103,21.9997897 L11.0002103,21.9997897 C6.55093027,21.9997897 2.54047694,24.6799764 0.837676936,28.7898697 C-0.864829731,32.9012297 0.0758902688,37.6324031 3.2221836,40.7778164 C6.36759694,43.9241097 11.0987703,44.8648297 15.2101303,43.1623231 C19.3200236,41.4595231 22.0002103,37.4490697 22.0002103,32.9997897 C22.0002103,26.9245631 17.0754369,21.9997897 11.0002103,21.9997897 Z M11.0002103,42.3072564 L11.0002103,42.3072564 C7.23615694,42.3072564 3.84229027,40.0397897 2.40085027,36.5611497 C0.960290269,33.0833897 1.75669027,29.0799764 4.41839694,26.4179764 C7.08039694,23.7562697 11.0838103,22.9598697 14.5627436,24.4004297 C18.0402103,25.8406964 20.3076769,29.2345631 20.3076769,32.9997897 C20.3076769,38.1398697 16.1402903,42.3072564 11.0002103,42.3072564 Z M10.1545303,29.6150164 L10.1545303,36.3845631 C10.1545303,36.6183497 9.9656236,36.8072564 9.73183694,36.8072564 L8.0393036,36.8072564 C7.80551694,36.8072564 7.61661027,36.6183497 7.61661027,36.3845631 L7.61661027,29.6150164 C7.61661027,29.3812297 7.80551694,29.1923231 8.0393036,29.1923231 L9.73183694,29.1923231 C9.9656236,29.1923231 10.1533569,29.3824031 10.1545303,29.6150164 Z M14.3849836,29.6150164 L14.3849836,36.3845631 C14.3849836,36.6183497 14.1960769,36.8072564 13.9622903,36.8072564 L12.2697569,36.8072564 C12.0359703,36.8072564 11.8470636,36.6183497 11.8470636,36.3845631 L11.8470636,29.6150164 C11.8470636,29.3812297 12.0359703,29.1923231 12.2697569,29.1923231 L13.9622903,29.1923231 C14.1960769,29.1923231 14.3849836,29.3812297 14.3849836,29.6150164 Z" id="pause"></path>
        </g>
    </g>
</svg>