<?xml version="1.0" encoding="UTF-8" standalone="no"?>
<svg width="88px" height="65px" viewBox="0 0 88 65" version="1.1" xmlns="http://www.w3.org/2000/svg" xmlns:xlink="http://www.w3.org/1999/xlink" xmlns:sketch="http://www.bohemiancoding.com/sketch/ns">
    <!-- Generator: Sketch 3.4.4 (17249) - http://www.bohemiancoding.com/sketch -->
    <title>“ copy</title>
    <desc>Created with Sketch.</desc>
    <defs></defs>
    <g id="Page-1" stroke="none" stroke-width="1" fill="none" fill-rule="evenodd" sketch:type="MSPage">
        <g id="Styleguide" sketch:type="MSArtboardGroup" transform="translate(-505.000000, -2826.000000)" fill="#000000" opacity="0.0776585821">
            <path d="M526,2890.4 C534.8,2890.4 545.6,2887.4 545.6,2872.4 C545.6,2857.6 536.8,2852.8 528.6,2852.8 C520.8,2852.8 518.6,2856.6 515.4,2856.6 C511.6,2856.6 511.6,2854.2 511.6,2852.8 C511.6,2840 523.6,2831 539.2,2831 L539.2,2826.6 C522.6,2826.6 505,2835.2 505,2864 C505,2883.4 516,2890.4 526,2890.4 L526,2890.4 Z M573.4,2890.4 C582.2,2890.4 593,2886.2 593,2871.4 C593,2856.4 584.2,2852.8 576,2852.8 C568.2,2852.8 566,2856.6 562.8,2856.6 C559,2856.6 559,2854.2 559,2852.8 C559,2840 571,2831 586.6,2831 L586.6,2826.6 C570,2826.6 552.4,2835.2 552.4,2864 C552.4,2883.4 563.4,2890.4 573.4,2890.4 L573.4,2890.4 Z" id="“-copy" sketch:type="MSShapeGroup"></path>
        </g>
    </g>
</svg>